<svg id="Calque_1" data-name="Calque 1" xmlns="http://www.w3.org/2000/svg" viewBox="0 0 78.49 69.51"><defs><style>.cls-1,.cls-2,.cls-3,.cls-4{fill:none;stroke:#b23232;stroke-miterlimit:10;}.cls-1{stroke-width:1.4px;}.cls-2{stroke-width:0.16px;}.cls-3{stroke-width:0.18px;}.cls-4{stroke-width:0.64px;}</style></defs><path class="cls-1" d="M65.52,34.85v23.2l-1.39-.44c-1.74-.52-3.46-1.16-5.24-1.53a13.05,13.05,0,0,0-8.74,1.36.89.89,0,0,1-.92,0,14.29,14.29,0,0,0-11.54-.69L34.34,57.9l-.48.13V34.86A40.47,40.47,0,0,1,40.26,33a16.44,16.44,0,0,1,9,1.12,1,1,0,0,0,.91,0,16.68,16.68,0,0,1,12.08-.37C63.33,34.1,64.41,34.48,65.52,34.85Z" transform="translate(-10.76 -15.25)"/><path class="cls-1" d="M57.55,73.55c.21.45.43.91.63,1.38.75,1.71,1.5,3.42,2.22,5.13.17.41.41.57,1,.56,3,0,6,0,9.11,0v3.44H28.86V80.61H33c1.68,0,3.35,0,5,0,.6,0,.84-.16,1-.56.92-2.17,1.87-4.34,2.82-6.51" transform="translate(-10.76 -15.25)"/><rect class="cls-1" x="0.7" y="0.7" width="77.09" height="57.62"/><path class="cls-2" d="M62.31,36.86V55.34L61.2,55c-1.39-.41-2.76-.92-4.17-1.22a10.43,10.43,0,0,0-7,1.08.73.73,0,0,1-.74,0,11.33,11.33,0,0,0-9.19-.55l-2.68.91a3,3,0,0,1-.38.1V36.86a31.88,31.88,0,0,1,5.11-1.49,13.06,13.06,0,0,1,7.15.89.83.83,0,0,0,.72,0A13.31,13.31,0,0,1,59.69,36Z" transform="translate(-10.76 -15.25)"/><line class="cls-3" x1="38.93" y1="22.45" x2="38.93" y2="37.87"/><rect class="cls-4" x="3.96" y="3.33" width="70.57" height="52.37"/></svg>