<svg id="Calque_1" data-name="Calque 1" xmlns="http://www.w3.org/2000/svg" viewBox="0 0 168.26 149.01"><defs><style>.cls-1,.cls-2,.cls-3,.cls-4{fill:none;stroke:#b23232;stroke-miterlimit:10;}.cls-1{stroke-width:3.01px;}.cls-2{stroke-width:0.35px;}.cls-3{stroke-width:0.38px;}.cls-4{stroke-width:1.37px;}</style></defs><path class="cls-1" d="M133.27,67.53v49.73c-1-.33-2-.65-3-.94-3.74-1.12-7.42-2.49-11.22-3.28a27.92,27.92,0,0,0-18.74,2.9,1.9,1.9,0,0,1-2,0c-8-4.14-16.29-4.31-24.73-1.47l-7.2,2.45c-.32.11-.65.18-1,.28V67.54c4.52-1.47,9-3.28,13.73-4a35,35,0,0,1,19.23,2.39,2.29,2.29,0,0,0,2,0,35.76,35.76,0,0,1,25.91-.79C128.57,65.92,130.9,66.73,133.27,67.53Z" transform="translate(-15.87 -25.5)"/><path class="cls-1" d="M116.19,150.48c.44,1,.91,2,1.35,3,1.6,3.66,3.22,7.32,4.75,11,.37.88.88,1.22,2.18,1.2,6.46,0,12.92,0,19.52,0V173H54.67v-7.38h8.82c3.59,0,7.19-.05,10.78,0,1.3,0,1.8-.33,2.17-1.21,2-4.65,4-9.29,6-14" transform="translate(-15.87 -25.5)"/><rect class="cls-1" x="1.5" y="1.5" width="165.25" height="123.52"/><path class="cls-2" d="M126.38,71.82v39.63c-.83-.26-1.6-.51-2.38-.74-3-.89-5.91-2-8.94-2.62a22.26,22.26,0,0,0-14.93,2.32,1.52,1.52,0,0,1-1.58,0c-6.4-3.3-13-3.44-19.71-1.17-1.92.64-3.82,1.3-5.74,2-.25.09-.51.14-.81.22V71.83c3.6-1.17,7.14-2.62,10.94-3.19a27.94,27.94,0,0,1,15.33,1.91,1.79,1.79,0,0,0,1.55,0,28.55,28.55,0,0,1,20.66-.62C122.63,70.54,124.49,71.18,126.38,71.82Z" transform="translate(-15.87 -25.5)"/><line class="cls-3" x1="83.46" y1="48.13" x2="83.46" y2="81.19"/><rect class="cls-4" x="8.49" y="7.13" width="151.27" height="112.26"/></svg>